<svg xmlns="http://www.w3.org/2000/svg" viewBox="0 0 64 64">
  <!-- Background circle -->
  <circle cx="32" cy="32" r="30" fill="#2c3e50"/>
  
  <!-- Letter Q -->
  <path d="M23 18.5c-5.5 0-10 4.5-10 10s4.5 10 10 10c1.3 0 2.5-0.2 3.6-0.7l3.4 3.4 3-3-3.3-3.3c1.9-1.8 3.2-4.3 3.2-7.1 0-5.5-4.5-10-10-10zm0 16c-3.3 0-6-2.7-6-6s2.7-6 6-6 6 2.7 6 6-2.7 6-6 6z" fill="#3498db"/>
  
  <!-- Lock symbol -->
  <rect x="36" y="25" width="14" height="19" rx="2" ry="2" fill="#2ecc71"/>
  <rect x="39" y="19" width="8" height="8" rx="4" ry="4" stroke="#2ecc71" stroke-width="4" fill="none"/>
  
  <!-- Quantum wave -->
  <path d="M17 44c2 2 6 2 8 0s6-2 8 0 6 2 8 0 6-2 8 0" stroke="#f1c40f" stroke-width="2" fill="none"/>
</svg> 